<svg xmlns="http://www.w3.org/2000/svg" width="96" height="96" viewBox="0 0 96 96">
  <g id="web_icon_device-trusted_96" transform="translate(1539 -280)">
    <rect id="pole" width="96" height="96" transform="translate(-1539 280)" fill="#003574" opacity="0"/>
    <g id="ikona">
      <path id="Path_1794" data-name="Path 1794" d="M-1455,329.11V324a8,8,0,0,0-8-8h-8a8,8,0,0,0-8,8v5.11a7.964,7.964,0,0,0-4,6.89v8a8,8,0,0,0,8,8h16a8,8,0,0,0,8-8v-8A7.964,7.964,0,0,0-1455,329.11Zm-20-5.11a4,4,0,0,1,4-4h8a4,4,0,0,1,4,4v4h-16Zm20,20a4,4,0,0,1-4,4h-16a4,4,0,0,1-4-4v-8a3.937,3.937,0,0,1,.387-1.663A3.991,3.991,0,0,1-1475,332h16a3.991,3.991,0,0,1,3.613,2.337A3.937,3.937,0,0,1-1455,336Z" fill="#003574"/>
      <path id="Path_1795" data-name="Path 1795" d="M-1523,336V300h64v12h4V300a4,4,0,0,0-4-4h-64a4,4,0,0,0-4,4v40h40v-4Z" fill="#003574"/>
      <path id="Path_1796" data-name="Path 1796" d="M-1535,344s0,4,4,4h44v-4Z" fill="#003574"/>
    </g>
  </g>
</svg>
