<svg xmlns="http://www.w3.org/2000/svg" xmlns:xlink="http://www.w3.org/1999/xlink" width="96" height="96" viewBox="0 0 96 96">
  <defs>
    <linearGradient id="linear-gradient" x1="1.003" y1="0.493" x2="0" y2="0.493" gradientUnits="objectBoundingBox">
      <stop offset="0" stop-color="#004c9a"/>
      <stop offset="0.143" stop-color="#004994"/>
      <stop offset="0.33" stop-color="#013f84"/>
      <stop offset="0.542" stop-color="#033069"/>
      <stop offset="0.771" stop-color="#051a43"/>
      <stop offset="1" stop-color="#070016"/>
    </linearGradient>
  </defs>
  <g id="pko_icon_logo-iko_red_96" transform="translate(-444 -777)">
    <rect id="pole" width="96" height="96" transform="translate(444 777)" fill="none" opacity="0"/>
    <g id="Group_14410" data-name="Group 14410" transform="translate(472 797)">
      <g id="Group_14410-2" data-name="Group 14410" transform="translate(0)">
        <path id="Path_16" data-name="Path 16" d="M0,60.288H0V76.382H3.388V56.9A3.345,3.345,0,0,0,0,60.288Z" transform="translate(0 -16.735)"/>
        <path id="Path_17" data-name="Path 17" d="M19.835,66.723v-.706A6.459,6.459,0,0,0,22.871,63.9l5.859-7.059a9.643,9.643,0,0,0-1.341-.141,5.254,5.254,0,0,0-4.094,2.047l-5.576,7.059V56.841H14.4V76.324h3.318V66.935l5.788,7.2a5.641,5.641,0,0,0,4.518,2.259,5.76,5.76,0,0,0,1.271-.141l-6.212-7.482A5.9,5.9,0,0,0,19.835,66.723Z" transform="translate(-4.235 -16.676)"/>
        <path id="Path_18" data-name="Path 18" d="M46.082,56.4C41,56.4,37.4,60.565,37.4,66.353c0,6.212,3.671,10.235,8.682,10.235s8.682-4.094,8.682-10.235C54.765,60.565,51.094,56.4,46.082,56.4Zm.141,18.071C42.906,74.471,41,71.082,41,66c0-4.306,1.906-7.553,5.012-7.553,3.318,0,5.224,3.247,5.224,8.259C51.165,71.153,49.329,74.471,46.224,74.471Z" transform="translate(-11 -16.588)"/>
        <path id="Path_19" data-name="Path 19" d="M25.347,18.494A9.247,9.247,0,1,0,16.1,9.247,9.279,9.279,0,0,0,25.347,18.494Z" transform="translate(-4.735)" fill="#e4202c"/>
        <path id="Path_20" data-name="Path 20" d="M34.9,37.582a2.689,2.689,0,0,0-1.2-.282H14.641a2.32,2.32,0,0,0-1.2.282A2.167,2.167,0,0,0,12.1,39.347a1.314,1.314,0,0,0,.282.776,2.175,2.175,0,0,0,1.412.635H34.476a1.881,1.881,0,0,0,1.412-.635.97.97,0,0,0,.282-.776A1.887,1.887,0,0,0,34.9,37.582Z" transform="translate(-3.559 -10.971)" fill="url(#linear-gradient)"/>
      </g>
    </g>
  </g>
</svg>
