<svg xmlns="http://www.w3.org/2000/svg" width="96" height="96" viewBox="0 0 96 96">
  <g id="pko_icon_account-credited-2_96" transform="translate(-449 -765)">
    <rect id="pole" width="96" height="96" transform="translate(449 765)" fill="#003574" opacity="0"/>
    <g id="ikona">
      <path id="Path_2225" data-name="Path 2225" d="M238,196v-7.17l7.17,7.17Zm33-30h6.17L290,178.83V196h-5a7.492,7.492,0,0,0-1.92-4.53,7.34,7.34,0,0,0-4.76-2.37,8.607,8.607,0,0,0-5,1c-.73.38-8.67,6.47-9.73,7.23-.53.36-1.07.73-1.53,1a2.607,2.607,0,0,1-1.11.39c-1,.09-2.52,0-3.92.18a18.392,18.392,0,0,0-4.05.8,4,4,0,0,0-.85-2.42L238,183.17V166h14.75a4,4,0,0,0-4-4H234v38h18.22a14.106,14.106,0,0,0-3.61,2,21.308,21.308,0,0,0-3.16,3,20.528,20.528,0,0,0-2.45,3.69,30.086,30.086,0,0,0-1.74,3.89l-.06.08-6.2,3.61a3.81,3.81,0,0,0,5.11,1.66l4.46-2.59.23-.74.2-.6a26.633,26.633,0,0,1,1.5-3.36,16.513,16.513,0,0,1,2-3,16.971,16.971,0,0,1,2.55-2.47,9.808,9.808,0,0,1,2.95-1.58,14.306,14.306,0,0,1,3.42-.68c1.24-.13,2.36-.06,4-.19a6.614,6.614,0,0,0,2.58-.89c.69-.4,10.49-7.79,11.21-8.18a4.6,4.6,0,0,1,2.67-.57,3.41,3.41,0,0,1,2.2,1.06,3.53,3.53,0,0,1,.92,2.32,4.09,4.09,0,0,1-.83,2.48c-.44.66-11.79,9.78-11.79,9.78l-.42.83a4,4,0,0,0,1.8,5.35l1.78-3.56c.08-.13,0,0,.06-.08l8.58-7a18.777,18.777,0,0,0,3.21-3,9.343,9.343,0,0,0,.8-1.26H294V162H275A4,4,0,0,0,271,166Zm19,7.17L282.83,166H290Zm-24.56-.85a9,9,0,0,0-11.12,11.12,8.892,8.892,0,0,0,6.24,6.24,9,9,0,0,0,11.12-11.12A8.892,8.892,0,0,0,265.44,172.32Zm-1.2,13.53a5,5,0,1,1,3.61-3.61A5,5,0,0,1,264.24,185.85Zm22.64,18a4,4,0,0,1,.85,5.593l-.02.027-10.62,14.42-18.39,2-5.59,3.73a4,4,0,0,1,1.1-5.548l.065-.042,3-2,17.61-2Z" transform="translate(233 629)" fill="#003574"/>
      <path id="Path_2226" data-name="Path 2226" d="M260,158.34V140h4v18.34l7.53-7.44a4.25,4.25,0,0,1,6-.31L262,166l-15.33-15.41a4.25,4.25,0,0,1,6,.31Z" transform="translate(233 629)" fill="#003574"/>
    </g>
  </g>
</svg>
