<svg xmlns="http://www.w3.org/2000/svg" width="96" height="96" viewBox="0 0 96 96">
  <g id="pko_icon_offer_96" transform="translate(-1115 -765)">
    <path id="ikona" d="M271.992,302H256.113A7.822,7.822,0,0,0,248,310l-.013,4h-8.212L232,370h63.713L288,314h-8v-3.582A8.084,8.084,0,0,0,271.992,302ZM252,310a3.751,3.751,0,0,1,4-4h16a3.751,3.751,0,0,1,4,4v4H252Zm32.371,8.009.039.415,6.867,47.567H236.436l6.969-47.982L248,318v8c2.247-.231,4-1.69,4-4v-4h24v8c2.247-.231,4-1.69,4-4v-4Z" transform="translate(899 475)" fill="#003574"/>
    <rect id="pole" width="96" height="96" transform="translate(1115 765)" fill="#003574" opacity="0"/>
  </g>
</svg>
