<svg xmlns="http://www.w3.org/2000/svg" viewBox="0 0 198.42 88.91">
  <defs>
    <style>
      .junior-1{fill:url(#junior-linear-gradient);}.junior-2{fill:url(#junior-linear-gradient-2);}.junior-3{fill:url(#junior-linear-gradient-3);}.junior-4{fill:url(#junior-linear-gradient-4);}.junior-5{fill:url(#junior-linear-gradient-5);}.junior-6{fill:url(#junior-linear-gradient-6);}.junior-7{fill:url(#junior-linear-gradient-7);}
    </style>
    <linearGradient id="junior-linear-gradient" x1="20.24" y1="43.95" x2="43.02" y2="4.5" gradientUnits="userSpaceOnUse">
      <stop offset="0" stop-color="#00000a"/>
      <stop offset="0.03" stop-color="#000412"/>
      <stop offset="0.19" stop-color="#001d3f"/>
      <stop offset="0.36" stop-color="#003265"/>
      <stop offset="0.52" stop-color="#004282"/>
      <stop offset="0.69" stop-color="#004d96"/>
      <stop offset="0.85" stop-color="#0054a3"/>
      <stop offset="1" stop-color="#0056a7"/>
    </linearGradient>
    <linearGradient id="junior-linear-gradient-2" x1="44.97" y1="46.2" x2="65.97" y2="9.83" gradientUnits="userSpaceOnUse">
      <stop offset="0" stop-color="#8b1314"/>
      <stop offset="0.19" stop-color="#ac1d1f"/>
      <stop offset="0.39" stop-color="#c92629"/>
      <stop offset="0.6" stop-color="#dd2c2f"/>
      <stop offset="0.8" stop-color="#ea3034"/>
      <stop offset="1" stop-color="#ee3135"/>
    </linearGradient>
    <linearGradient id="junior-linear-gradient-3" x1="77.72" y1="54.18" x2="103.33" y2="9.83" gradientUnits="userSpaceOnUse">
      <stop offset="0" stop-color="#b97c0f"/>
      <stop offset="0.01" stop-color="#bb7e0f"/>
      <stop offset="0.27" stop-color="#d89811"/>
      <stop offset="0.52" stop-color="#ecaa12"/>
      <stop offset="0.76" stop-color="#f9b513"/>
      <stop offset="1" stop-color="#fdb913"/>
    </linearGradient>
    <linearGradient id="junior-linear-gradient-4" x1="103.11" y1="47.86" x2="120.09" y2="18.45" gradientUnits="userSpaceOnUse">
      <stop offset="0" stop-color="#003572"/>
      <stop offset="0.07" stop-color="#004482"/>
      <stop offset="0.26" stop-color="#0067a7"/>
      <stop offset="0.45" stop-color="#0083c4"/>
      <stop offset="0.64" stop-color="#0096d8"/>
      <stop offset="0.82" stop-color="#00a2e5"/>
      <stop offset="1" stop-color="#00a6e9"/>
    </linearGradient>
    <linearGradient id="junior-linear-gradient-5" x1="126.89" y1="47.27" x2="146.48" y2="13.34" gradientUnits="userSpaceOnUse">
      <stop offset="0" stop-color="#005017"/>
      <stop offset="0.09" stop-color="#166423"/>
      <stop offset="0.28" stop-color="#3b8637"/>
      <stop offset="0.46" stop-color="#58a147"/>
      <stop offset="0.65" stop-color="#6cb453"/>
      <stop offset="0.83" stop-color="#79bf5a"/>
      <stop offset="1" stop-color="#7dc35c"/>
    </linearGradient>
    <linearGradient id="junior-linear-gradient-6" x1="73.82" y1="103.08" x2="125.8" y2="13.05" gradientUnits="userSpaceOnUse">
      <stop offset="0" stop-color="#656668"/>
      <stop offset="0.12" stop-color="#6f7173"/>
      <stop offset="0.42" stop-color="#838587"/>
      <stop offset="0.72" stop-color="#8f9194"/>
      <stop offset="1" stop-color="#939598"/>
    </linearGradient>
    <linearGradient id="junior-linear-gradient-7" x1="155.59" y1="40.75" x2="175.1" y2="6.95" gradientUnits="userSpaceOnUse">
      <stop offset="0" stop-color="#8d3117"/>
      <stop offset="0.01" stop-color="#903317"/>
      <stop offset="0.21" stop-color="#b55619"/>
      <stop offset="0.42" stop-color="#d2711b"/>
      <stop offset="0.61" stop-color="#e6841c"/>
      <stop offset="0.81" stop-color="#f3901d"/>
      <stop offset="1" stop-color="#f7941d"/>
    </linearGradient>
  </defs>
  <g id="Warstwa_2" data-name="Warstwa 2">
    <g id="Warstwa_1-2" data-name="Warstwa 1">
      <path class="junior-1"
            d="M16.44,35.43a7.36,7.36,0,0,0,.09,2.45,9.85,9.85,0,0,0,.63,2.21,8,8,0,0,0,1,1.65,12.57,12.57,0,0,0,1.27,1.36,15,15,0,0,0,1.23,1,9.12,9.12,0,0,0,.95.62,8.42,8.42,0,0,0,4.94,1.44,8,8,0,0,0,4.25-1.52A10.64,10.64,0,0,0,33.94,41a13.16,13.16,0,0,0,1.47-5.07c.1-1.38.24-3.08.44-5.33L36,29.31c.14-1.63.28-3.31.49-5,.68-5.66,1.52-10.12,2.13-13.37s1.05-5.58.81-6.59C38.72,1.3,35.48,0,34,0a1.75,1.75,0,0,0-.36,0c-1.5,2.1-1.62,9.88-1.71,15,0,1.71-.05,3.06-.12,3.82,0,.14,0,.33,0,.56a90.25,90.25,0,0,1-2,13.28,20.05,20.05,0,0,1-1.25,3.47,10.22,10.22,0,0,1-1.76,2.76,2.3,2.3,0,0,1-2.35.81,1.1,1.1,0,0,1-.91-1,13.14,13.14,0,0,0-.3-1.65,4.87,4.87,0,0,0-1-1.92,6.15,6.15,0,0,0-2.9-1.69,3.46,3.46,0,0,0-1-.19,1.34,1.34,0,0,0-1,.36A3.07,3.07,0,0,0,16.44,35.43Z"/>
      <path class="junior-2"
            d="M53.06,13.42a11.19,11.19,0,0,1-.78,4.07c-.53,1.36-1.12,2.78-1.77,4.27a49.62,49.62,0,0,0-1.77,4.66A15.78,15.78,0,0,0,48,31.7a20.07,20.07,0,0,0,.35,3,24.33,24.33,0,0,0,.87,3.43,13.49,13.49,0,0,0,1.36,3,3.82,3.82,0,0,0,1.86,1.69,4.51,4.51,0,0,0,1.11.29,13.88,13.88,0,0,0,1.54.16,10.26,10.26,0,0,0,1.5,0,1.62,1.62,0,0,0,1-.33,16.15,16.15,0,0,0,4.05-6.17,32,32,0,0,0,1.84-7.52,33.92,33.92,0,0,0,.07-7.48,24.58,24.58,0,0,0-1.3-6,8.11,8.11,0,0,1-.47-3.19,7,7,0,0,1,1.13-3.31A6.3,6.3,0,0,1,67.56,11,10.07,10.07,0,0,1,70,15.45a22.93,22.93,0,0,1,.75,6.23,45.34,45.34,0,0,1-.57,7,59.36,59.36,0,0,1-1.44,6.68A52.9,52.9,0,0,1,67,40.74a17.63,17.63,0,0,1-1.61,2.87,26.35,26.35,0,0,1-2.28,2.92,20.48,20.48,0,0,1-2.4,2.3,4.89,4.89,0,0,1-1.92,1.08,13.21,13.21,0,0,1-2.54.16,23,23,0,0,1-3-.25,16.33,16.33,0,0,1-2.79-.64,6.33,6.33,0,0,1-2.09-1.08,16,16,0,0,1-3.91-4.89,22.81,22.81,0,0,1-2.22-6.4,30.29,30.29,0,0,1-.49-7.33,33.72,33.72,0,0,1,1.27-7.67,27.79,27.79,0,0,1,1.16-3.13,14.2,14.2,0,0,0,1-3.29,4.48,4.48,0,0,0,.1-1.07c0-.32,0-.62,0-.91a3.46,3.46,0,0,1,.12-.83,1.77,1.77,0,0,1,.5-.76,3,3,0,0,1,1.7-.9,4.48,4.48,0,0,1,2,.12,6.79,6.79,0,0,1,1.94.92A6,6,0,0,1,53.06,13.42Z"/>
      <path class="junior-3"
            d="M100.79,8.92a9.68,9.68,0,0,1,.83,3.55,34,34,0,0,1-.1,3.85c-.12,1.33-.27,2.75-.45,4.25a31.67,31.67,0,0,0-.21,4.8c0,1.53.08,3.28.21,5.26s.22,4,.31,6,.16,4,.21,5.84,0,3.45-.07,4.73a18.11,18.11,0,0,1-1.11,5,19.7,19.7,0,0,1-2.12,4.21,5.87,5.87,0,0,1-3.51-1.36,11.17,11.17,0,0,1-2.46-3,26.09,26.09,0,0,1-1.82-4.08q-.79-2.24-1.56-4.47-.71-2-1.51-4.61c-.54-1.76-1.07-3.57-1.62-5.46s-1.08-3.75-1.59-5.62-1-3.56-1.43-5.09a5.1,5.1,0,0,0-.6,1.63,22.24,22.24,0,0,0-.38,2.25q-.15,1.21-.27,2.35c-.08.77-.15,1.4-.17,1.9a31.53,31.53,0,0,0,0,3.9q.1,2.19.28,4.51T82,43.87c.13,1.55.21,3,.22,4.35A22.84,22.84,0,0,1,82,51.8a4.33,4.33,0,0,1-.92,2.3,1.8,1.8,0,0,1-1.7.82,3.35,3.35,0,0,1-1.71-.9,8.15,8.15,0,0,1-1.46-1.78,12.07,12.07,0,0,1-1-1.84q.4-3.69.71-8.1T76.3,33c0-1.42,0-2.82-.11-4.19S76,26.17,76,24.93s0-2.42,0-3.53a11.49,11.49,0,0,1,.57-3,6.79,6.79,0,0,1,.6-1.15,14.32,14.32,0,0,1,1-1.45,14.55,14.55,0,0,1,1.16-1.29,3.18,3.18,0,0,1,1-.73,2.48,2.48,0,0,1,1-.06c.39,0,.81.08,1.23.15a8.44,8.44,0,0,1,1.2.29,2.71,2.71,0,0,1,.83.39,5.36,5.36,0,0,1,1.46,1.8,27.62,27.62,0,0,1,1.33,2.85c.41,1,.79,2.1,1.12,3.17s.6,2,.82,2.77q.5,1.7,1.16,4.37t1.43,5.38c.51,1.81,1,3.5,1.56,5.06a13.4,13.4,0,0,0,1.6,3.46,22.87,22.87,0,0,0,.83-6.07q.05-3.4-.16-7c-.15-2.38-.31-4.78-.49-7.18a53.66,53.66,0,0,1-.1-6.7,21.51,21.51,0,0,1,.94-5.51,6.63,6.63,0,0,1,2.7-3.66,1.86,1.86,0,0,1,1,.79A2.42,2.42,0,0,0,100.79,8.92Z"/>
      <path class="junior-4"
            d="M108.92,27.48a28,28,0,0,0-.68-3.53,30.54,30.54,0,0,1-.71-3.72,12,12,0,0,1,0-3.5,4.75,4.75,0,0,1,1.69-2.88,3.32,3.32,0,0,1,1.2-.79.8.8,0,0,1,.71.28l.85.86a4,4,0,0,0,1.66.86A5.47,5.47,0,0,1,115,18a15.92,15.92,0,0,1,0,3.47c-.12,1.23-.3,2.53-.53,3.89a19.41,19.41,0,0,0-.23,4.28q.15,3.47.52,6.16t.75,4.79c.25,1.4.45,2.65.61,3.75a16.08,16.08,0,0,1,.16,3,7.24,7.24,0,0,1-.59,2.61,8.68,8.68,0,0,1-1.72,2.48,1.5,1.5,0,0,1-1.4.47,4.88,4.88,0,0,1-1.7-.65,8.37,8.37,0,0,1-1.58-1.18,3.61,3.61,0,0,1-1-1.26q.11-3.84.48-7.84t.38-7.79c0-1.14,0-2.33,0-3.58S109,28.37,108.92,27.48Z"/>
      <path class="junior-5"
            d="M147.85,15.38A16.12,16.12,0,0,0,144.18,12a14,14,0,0,0-3.87-1.75,17.24,17.24,0,0,0-3.65-.59,16.23,16.23,0,0,0-3,.12c-.81.12-1.47.23-1.91.33a26.93,26.93,0,0,0-2.54,1.77,21.14,21.14,0,0,0-3.42,3.37,24.12,24.12,0,0,0-3.09,4.88,17.32,17.32,0,0,0-1.64,6.19c-.56,7.16.49,12.94,3.13,17.2s6.77,6.79,12.32,7.58c.27-.06.7-.12,1.26-.18a18.81,18.81,0,0,0,1.9-.33,16,16,0,0,0,2.19-.67,8.85,8.85,0,0,0,2.17-1.2,18.27,18.27,0,0,0,5-5.32,23.38,23.38,0,0,0,2.9-7,26.88,26.88,0,0,0,.68-7.79,25.06,25.06,0,0,0-1.74-7.89A19.59,19.59,0,0,0,147.85,15.38Zm-2.49,22a12.93,12.93,0,0,1-3.78,5.75,7,7,0,0,1-4.48,2H137a7.54,7.54,0,0,1-4.32-1.42,12.33,12.33,0,0,1-3.74-3.88,14.44,14.44,0,0,1-1.79-4.92,20.78,20.78,0,0,1-.34-3.06,10.72,10.72,0,0,1,.31-2.92l.05-.21.18.13a7,7,0,0,0,2.85,1.38,2.67,2.67,0,0,0,2.06-.52,3.5,3.5,0,0,0,0-1.34,5.09,5.09,0,0,0-.37-1,16.73,16.73,0,0,1-1.08-3.94,8.75,8.75,0,0,1,.17-3.59,6.83,6.83,0,0,1,1.59-2.85,6.58,6.58,0,0,1,3.08-1.78h.06A9.82,9.82,0,0,1,140.17,17a14,14,0,0,1,3.41,3.57,17.13,17.13,0,0,1,2.13,4.62,18.08,18.08,0,0,1,.78,4.92A23.47,23.47,0,0,1,145.37,37.38Z"/>
      <path class="junior-6"
            d="M181.76,55a137.74,137.74,0,0,1-16.62,9.66,123.81,123.81,0,0,1-15.37,6.16C102.45,87.45,54.84,81.64,8.08,59.14c-1.53-.74-3.29-1.42-5.26-.29-1.26.72-4.83.37-1.32,2.48C49.6,88.17,98.93,96.1,150,82.12a130.39,130.39,0,0,0,16.21-5.17,130.59,130.59,0,0,0,31.41-17.6c1.87-1.42,0-3.37-.28-3.75-.48-.62-3-3.48-5.21-4.07-2.39-.64-4-.68-5.42.25C185.87,52.3,183.54,53.79,181.76,55Z"/>
      <path class="junior-7"
            d="M163.7,45.1V45h0a1.68,1.68,0,0,0,.67-.16,2.7,2.7,0,0,0,1.57-2,9.12,9.12,0,0,0,.13-3,29.39,29.39,0,0,0-.66-3.73c-.28-1.17-.6-2.5-1-4.19-.32-1.25-.64-2.63-1-4.35-.07-.31-.13-.54-.19-.75a8.27,8.27,0,0,1-.25-1.2l-.05-.36.29.23c.08.06,1.25,1.26,3.49,3.54,3.19,3.26,8,8.18,8.4,8.46l0,0a4,4,0,0,0,3.49,2,3.58,3.58,0,0,0,1.7-.4,7,7,0,0,0,1.38-1c.89-.81,1.25-1.39.93-2.47a5.23,5.23,0,0,0-1.37-1.93,1.79,1.79,0,0,1-.5-1.07c-.7-.47-10-6.72-13.56-10.39l-.21-.17.27-.09c2.11-.71,7.12-2.66,8.09-5.56A11.08,11.08,0,0,0,175,8.94c-1.89-4.54-8.2-7.26-16.85-7.26-.71,0-1.43,0-2.15.06a5.15,5.15,0,0,0-3.14,1,2.78,2.78,0,0,0-1,1.89,2.81,2.81,0,0,0,.53,1.84,2.72,2.72,0,0,0,.94.89l0,0,0,.05c.46,1.49,2.87,10.81,3,11.49l0,.09,0,0-.17.12c-.37.26-1.37,1-1.5,1.75s.88,1.49,1.61,2.08a3.87,3.87,0,0,1,.81.77c1.07,1.86,1.39,5.68,1.56,7.73,0,.27,0,.5.06.69l.35,4c.11,1.26.22,2.44.35,3.6a23.61,23.61,0,0,0,.44,2.72l.15.29a7.93,7.93,0,0,0,.84.79,8.59,8.59,0,0,0,1.11.77,4.94,4.94,0,0,0,1.19.5,2.15,2.15,0,0,0,.55.07v.1Zm-1.93-27.38h-.09l0-.09c-.08-.37-2-9.13-1.58-10.33V7.19l.12,0a4.57,4.57,0,0,1,.86-.06c2.09,0,5.8.51,7.43,1.91a6.24,6.24,0,0,1,1.72,5C170,15.14,165,17.18,161.76,17.72Z"/>
    </g>
  </g>
</svg>
