<svg xmlns="http://www.w3.org/2000/svg" width="96" height="96" viewBox="0 0 96 96">
  <g id="pko_icon_interests_96" transform="translate(-444 -765)">
    <rect id="pole" width="96" height="96" transform="translate(444 765)" fill="#003574" opacity="0.004"/>
    <g id="ikona">
      <path id="Path_2005" data-name="Path 2005" d="M669.15-386.29c-3.85,0-7.15-3.61-7.15-10.47s3.29-10.47,7.14-10.47,7.18,3.62,7.18,10.47S673-386.29,669.15-386.29Zm0-18.45c-1.55,0-2.77,2.44-2.77,7.94s1.22,7.88,2.77,7.88,2.85-2.39,2.85-7.88S670.74-404.74,669.15-404.74ZM690-406.52,674.36-376.2c-1,1.88-2.4,2.91-4.18,2.91a11.487,11.487,0,0,1-1.31-.09l15.63-30.23a4.731,4.731,0,0,1,4.22-3A10.533,10.533,0,0,1,690-406.52Zm.13,33.52c-3.85,0-7.13-3.57-7.13-10.43s3.28-10.46,7.13-10.46,7.18,3.61,7.18,10.46S694-373,690.13-373Zm0-18.45c-1.55,0-2.72,2.44-2.72,7.94s1.17,7.88,2.72,7.88S693-378,693-383.47s-1.23-7.94-2.87-7.94Z" transform="translate(-189 1204)" fill="#003574"/>
      <path id="Path_2006" data-name="Path 2006" d="M693-411a4,4,0,0,1,4-4h8v-8a4,4,0,0,1,4-4v12h12a4,4,0,0,1-4,4h-8v8a4,4,0,0,1-3.94,4.06H705V-411Z" transform="translate(-189 1204)" fill="#003574"/>
      <path id="Path_2007" data-name="Path 2007" d="M706.94-392c0,.5.08,1,.08,1.5a28.1,28.1,0,0,1-28,28.2,28.1,28.1,0,0,1-28.2-28,28.1,28.1,0,0,1,28-28.2,28.089,28.089,0,0,1,9.7,1.69v-4.29a31.718,31.718,0,0,0-9.52-1.44,32,32,0,0,0-32,32,32,32,0,0,0,32,32,32,32,0,0,0,32-32,9.366,9.366,0,0,0-.08-1.5Z" transform="translate(-189 1204)" fill="#003574"/>
    </g>
  </g>
</svg>
