<svg xmlns="http://www.w3.org/2000/svg" width="96" height="96" viewBox="0 0 96 96">
  <g id="pko_icon_goal_96" transform="translate(-448 -765)">
    <rect id="pole" width="96" height="96" transform="translate(448 765)" fill="#003574" opacity="0"/>
    <g id="ikona" transform="translate(151.957 485.5)">
      <path id="Path_1599" data-name="Path 1599" d="M377.882,302.3l-25.662,3.222-19.037-17.026L328.518,313.6,306.237,326.74l22.645,11.9,5.4,25.534,18.524-18.145,25.754,3.045-11.328-23.516ZM371.8,344.251l-20.417-2.415-14.687,14.388-4.283-20.246-17.957-9.438,17.667-10.414,3.7-19.911,15.1,13.5,20.344-2.554L362.816,325.6Z" fill="#003574"/>
      <path id="Path_1600" data-name="Path 1600" d="M356.667,350.338l-3.782,1.3,3.387,9.839a4,4,0,0,0,2.48-5.085Z" fill="#003574"/>
      <path id="Path_1601" data-name="Path 1601" d="M316.16,349.867a4,4,0,0,0,5.626.591l4.978-4.031-2.517-3.109Z" fill="#003574"/>
      <path id="Path_1602" data-name="Path 1602" d="M373.467,330.02l10.4.181a4,4,0,0,0-3.929-4.069l-6.4-.111Z" fill="#003574"/>
      <path id="Path_1603" data-name="Path 1603" d="M359.543,289.58a4,4,0,0,0-4.69,3.163l-1.222,6.288,3.926.763Z" fill="#003574"/>
      <path id="Path_1604" data-name="Path 1604" d="M320.156,312.672l3.109-2.517-6.549-8.087a4,4,0,0,0-.591,5.626Z" fill="#003574"/>
    </g>
  </g>
</svg>
