<svg xmlns="http://www.w3.org/2000/svg" xmlns:xlink="http://www.w3.org/1999/xlink" width="96" height="96" viewBox="0 0 96 96">
  <defs>
    <linearGradient id="linear-gradient" x1="0.5" y1="0.007" x2="0.5" y2="1" gradientUnits="objectBoundingBox">
      <stop offset="0" stop-color="#004c9a"/>
      <stop offset="0.143" stop-color="#004994"/>
      <stop offset="0.33" stop-color="#013f84"/>
      <stop offset="0.542" stop-color="#033069"/>
      <stop offset="0.771" stop-color="#051a43"/>
      <stop offset="1" stop-color="#070016"/>
    </linearGradient>
  </defs>
  <g id="pko_icon_logo-ipko_96" transform="translate(-120 -777)">
    <g id="iPKO-logo-mobile" transform="translate(136 813)">
      <g id="Group_14409" data-name="Group 14409">
        <path id="Path_14647" data-name="Path 14647" d="M8.391,20.834c-3.231,0-5.706,2.132-5.706,4.784h0V36.973H8.449Z" transform="translate(-1.877 -12.247)" fill="url(#linear-gradient)"/>
        <circle id="Ellipse_4_1_" cx="3.805" cy="3.805" r="3.805" fill="#e4202c"/>
        <path id="Path_7_1_" d="M26.321,22.4c0,4.324-3,7.55-8.127,7.55a14,14,0,0,1-2.651-.231v8.706H12.776V20.262c0-3.919,2.306-4.611,5.475-4.611C23.842,15.651,26.321,18.533,26.321,22.4Zm-7.9-5.129c-1.959,0-2.825.692-2.825,2.767v8.012a9.361,9.361,0,0,0,2.19.231c3.919,0,5.649-2.537,5.649-5.879C23.44,19.511,22,17.267,18.425,17.267Z" transform="translate(0.712 -13.576)"/>
        <path id="Path_8_1_" d="M28.879,27.408V38.3H26.17V15.938h2.709V26.428l7.2-8.415a5.517,5.517,0,0,1,4.038-2.132A5.769,5.769,0,0,1,41.16,16L33.5,24.641a5.667,5.667,0,0,1-3,1.959v.633a6.667,6.667,0,0,1,3.344,2.306l7.839,8.76a2.808,2.808,0,0,1-1.038.173,5.439,5.439,0,0,1-4.152-2.13Z" transform="translate(4.147 -13.517)"/>
        <path id="Path_9_1_" d="M48.377,38.742c-5.59,0-9.683-4.5-9.683-11.757,0-6.572,4.092-11.471,9.683-11.471S58,20.471,58,26.985C58,34.131,53.967,38.742,48.377,38.742Zm-.116-21.385c-3.977,0-6.57,4.038-6.57,9.335,0,6.168,2.593,10.26,6.744,10.26,3.977,0,6.57-4.093,6.57-9.626C55.063,21.451,52.469,17.357,48.261,17.357Z" transform="translate(7.36 -13.611)"/>
      </g>
    </g>
    <rect id="pole" width="96" height="96" transform="translate(120 777)" fill="none" opacity="0.002"/>
    <g id="Group_2105" data-name="Group 2105" transform="translate(-748 1201)">
      <rect id="Rectangle_1701" data-name="Rectangle 1701" width="96" height="96" transform="translate(868 -424)" fill="none"/>
    </g>
  </g>
</svg>
