<svg xmlns="http://www.w3.org/2000/svg" width="96" height="96" viewBox="0 0 96 96">
  <g id="pko_icon_my-bank_96" transform="translate(-120 -765)">
    <g id="ikona" transform="translate(-96 1330)">
      <path id="Path_2144" data-name="Path 2144" d="M260-525h4a4,4,0,0,1,4-4,4,4,0,0,1,4,4h4a8,8,0,0,0-8-8A8,8,0,0,0,260-525Z" fill="#003574"/>
      <path id="Path_2145" data-name="Path 2145" d="M243.888-521A3.831,3.831,0,0,1,240-525a3.625,3.625,0,0,1,3.631-4c.085,0,.283-.006.369,0v-4a7.763,7.763,0,0,0-8,7.433c0,.151,0,.3,0,.454l0,30.233a10.077,10.077,0,0,0,10.116,9.844L296-485v-36ZM292-489H246.353A6.145,6.145,0,0,1,240-494.884v-23.14A7.266,7.266,0,0,0,243.888-517H292Z" fill="#003574"/>
      <path id="Path_2146" data-name="Path 2146" d="M280-505h-8v4h12S284-505,280-505Z" fill="#003574"/>
      <path id="Path_2147" data-name="Path 2147" d="M284-525v-20H266.828L252-530.172V-525h-4v-24h40v24Zm-32-20v9.172L261.172-545Z" fill="#003574"/>
    </g>
    <rect id="pole" width="96" height="96" transform="translate(120 765)" fill="#003574" opacity="0"/>
  </g>
</svg>
